<svg width="61" height="13" fill="none" xmlns="http://www.w3.org/2000/svg"><g clip-path="url(#a)"><path fill-rule="evenodd" clip-rule="evenodd" d="M0 6.531C0 2.886 2.863.023 6.547.023c1.944 0 3.759.843 4.906 2.248.212.266.288.44.288.63 0 .365-.326.668-.706.668a.79.79 0 0 1-.63-.303C9.41 2.028 8.119 1.397 6.569 1.397c-2.863 0-5.02 2.21-5.02 5.134 0 2.917 2.157 5.134 5.02 5.134 1.542 0 2.84-.645 3.836-1.868a.769.769 0 0 1 .63-.304c.38 0 .706.304.706.669 0 .19-.076.364-.288.63-1.11 1.413-2.94 2.248-4.906 2.248C2.863 13.04 0 10.177 0 6.531Zm14.46 5.712V1.003c0-.441.304-.783.744-.783.418 0 .745.342.745.782v10.686h5.362c.402 0 .683.289.683.668a.668.668 0 0 1-.683.669h-6.069a.767.767 0 0 1-.782-.782Zm25.913-6.03h2.879c1.587 0 2.536-.882 2.536-2.31 0-1.412-.972-2.323-2.536-2.323h-2.879v4.632Zm8.013 6.159c0 .364-.304.668-.707.668-.227 0-.44-.137-.645-.402L43.237 7.54h-2.864v4.732a.755.755 0 0 1-.744.767c-.44 0-.744-.342-.744-.767V1.003c0-.418.326-.768.76-.768h3.66c2.407 0 4.025 1.466 4.025 3.646 0 1.678-.957 2.939-2.499 3.433l3.304 4.48c.152.198.25.388.25.578Zm12.265 0a.678.678 0 0 1-.683.668c-.19 0-.38-.099-.593-.304l-6.007-6.144c-.137-.152-.228-.326-.228-.516s.099-.365.25-.532l5.454-5.21c.227-.212.38-.304.57-.304.379 0 .683.304.683.669 0 .212-.099.38-.327.592l-4.99 4.785 5.59 5.741c.205.175.281.327.281.555ZM52.715.812v11.446c0 .44-.327.782-.745.782-.44 0-.744-.342-.744-.782V.813c0-.44.304-.783.744-.783.426 0 .745.342.745.783ZM35.999 11.81 31.176.516C31.024.175 30.796 0 30.47 0c-.327 0-.554.175-.706.516l-4.83 11.294c-.077.19-.115.341-.115.478 0 .38.327.722.722.722.326 0 .57-.19.706-.494l.92-2.187.03-.084.554-1.336 2.711-6.676 2.636 6.676.57 1.336 1.01 2.271c.151.304.38.494.72.494.38 0 .722-.342.722-.722.016-.137-.023-.289-.121-.478Z" fill="#0439D7"/></g><defs><clipPath id="a"><path fill="#fff" d="M0 0h61v13H0z"/></clipPath></defs></svg>